<?xml version="1.0" encoding="UTF-8" standalone="no"?>
<!-- Created with Inkscape (http://www.inkscape.org/) -->

<svg
   xmlns:dc="http://purl.org/dc/elements/1.1/"
   xmlns:cc="http://creativecommons.org/ns#"
   xmlns:rdf="http://www.w3.org/1999/02/22-rdf-syntax-ns#"
   xmlns:svg="http://www.w3.org/2000/svg"
   xmlns="http://www.w3.org/2000/svg"
   xmlns:sodipodi="http://sodipodi.sourceforge.net/DTD/sodipodi-0.dtd"
   xmlns:inkscape="http://www.inkscape.org/namespaces/inkscape"
   version="1.1"
   id="svg4709"
   xml:space="preserve"
   width="1066.6667"
   height="1066.6667"
   viewBox="0 0 1066.6667 1066.6667"
   sodipodi:docname="tribal-shape-5-publicdomainvectors.org.svg"
   inkscape:version="0.92.4 (5da689c313, 2019-01-14)"><metadata
     id="metadata4715"><rdf:RDF><cc:Work
         rdf:about=""><dc:format>image/svg+xml</dc:format><dc:type
           rdf:resource="http://purl.org/dc/dcmitype/StillImage" /><dc:title></dc:title></cc:Work></rdf:RDF></metadata><defs
     id="defs4713"><clipPath
       clipPathUnits="userSpaceOnUse"
       id="clipPath4725"><path
         d="M 0,800 H 800 V 0 H 0 Z"
         id="path4723"
         inkscape:connector-curvature="0" /></clipPath></defs><sodipodi:namedview
     pagecolor="#ffffff"
     bordercolor="#666666"
     borderopacity="1"
     objecttolerance="10"
     gridtolerance="10"
     guidetolerance="10"
     inkscape:pageopacity="0"
     inkscape:pageshadow="2"
     inkscape:window-width="1920"
     inkscape:window-height="1018"
     id="namedview4711"
     showgrid="false"
     inkscape:zoom="0.68305904"
     inkscape:cx="553.67236"
     inkscape:cy="535.59326"
     inkscape:window-x="-8"
     inkscape:window-y="-8"
     inkscape:window-maximized="1"
     inkscape:current-layer="g4717" /><g
     id="g4717"
     inkscape:groupmode="layer"
     inkscape:label="tribal-shape-5-publicdomainvectors.org"
     transform="matrix(1.3333333,0,0,-1.3333333,0,1066.6667)"><g
       id="g4719"><g
         id="g4721"
         clip-path="url(#clipPath4725)"><path
           d="m 717.566,177.626 8.062,-35.266 -33.747,12.981 c -41.077,15.775 -81.392,35.972 -119.765,59.97 -9.939,6.416 -22.502,14.775 -33.625,22.356 -3.974,2.726 -7.887,5.416 -11.586,8.002 l 0.118,0.251 -3.522,2.62 c -32.545,24.216 -63.505,51.486 -92.053,81.09 4.926,16.86 8.583,31.571 11.072,44.576 28.288,-31.371 59.092,-60.086 91.683,-85.473 l 1.98,-1.499 c 0.058,-0.051 0.116,-0.094 0.174,-0.141 12.982,-10.869 29.312,-22.572 41.672,-29.84 25.738,-17.014 52.622,-32.274 79.925,-45.369 l 12.027,-5.768 -4.458,12.571 c -13.64,38.391 -32.58,75.538 -56.304,110.435 2.91,17.837 2.668,41.307 1.493,61.833 52.585,-63.695 89.41,-137.132 106.854,-213.329"
           style="fill:#000100;fill-opacity:1;fill-rule:nonzero;stroke:none"
           id="path4727"
           inkscape:connector-curvature="0" /><path
           d="m 717.566,177.626 8.062,-35.266 -33.747,12.981 c -41.077,15.775 -81.392,35.972 -119.765,59.97 -9.939,6.416 -22.502,14.775 -33.625,22.356 -3.974,2.726 -7.887,5.416 -11.586,8.002 l 0.118,0.251 -3.522,2.62 c -32.545,24.216 -63.505,51.486 -92.053,81.09 4.926,16.86 8.583,31.571 11.072,44.576 28.288,-31.371 59.092,-60.086 91.683,-85.473 l 1.98,-1.499 c 0.058,-0.051 0.116,-0.094 0.174,-0.141 12.982,-10.869 29.312,-22.572 41.672,-29.84 25.738,-17.014 52.622,-32.274 79.925,-45.369 l 12.027,-5.768 -4.458,12.571 c -13.64,38.391 -32.58,75.538 -56.304,110.435 2.91,17.837 2.668,41.307 1.493,61.833 52.585,-63.695 89.41,-137.132 106.854,-213.329"
           style="fill:#000100;fill-opacity:1;fill-rule:nonzero;stroke:none"
           id="path4729"
           inkscape:connector-curvature="0" /><path
           d="m 588.649,417.841 c 0.86,-10.997 3.542,-49.175 1.601,-78.789 l -0.124,-1.572 c -1.879,-19.322 -5.374,-38.536 -10.377,-57.236 -12.062,7.665 -24.933,17.271 -33.717,24.441 6.303,28.879 8.536,58.508 6.628,88.141 -0.025,0.544 -0.08,1.084 -0.106,1.607 l -0.068,0.631 0.046,0.906 c 0.953,30.173 -11.931,68.347 -17.51,83.351 -1.538,4.12 -3.148,8.2 -4.764,12.064 -18.411,45.628 -47.733,86.966 -84.861,119.698 -1.774,15.135 -4.934,33.913 -9.396,55.979 82.782,-56.538 137.987,-144.644 152.182,-243.683 0.171,-1.781 0.314,-3.622 0.466,-5.538"
           style="fill:#000100;fill-opacity:1;fill-rule:nonzero;stroke:none"
           id="path4731"
           inkscape:connector-curvature="0" /><path
           d="m 588.649,417.841 c 0.86,-10.997 3.542,-49.175 1.601,-78.789 l -0.124,-1.572 c -1.879,-19.322 -5.374,-38.536 -10.377,-57.236 -12.062,7.665 -24.933,17.271 -33.717,24.441 6.303,28.879 8.536,58.508 6.628,88.141 -0.025,0.544 -0.08,1.084 -0.106,1.607 l -0.068,0.631 0.046,0.906 c 0.953,30.173 -11.931,68.347 -17.51,83.351 -1.538,4.12 -3.148,8.2 -4.764,12.064 -18.411,45.628 -47.733,86.966 -84.861,119.698 -1.774,15.135 -4.934,33.913 -9.396,55.979 82.782,-56.538 137.987,-144.644 152.182,-243.683 0.171,-1.781 0.314,-3.622 0.466,-5.538"
           style="fill:#000100;fill-opacity:1;fill-rule:nonzero;stroke:none"
           id="path4733"
           inkscape:connector-curvature="0" /><path
           d="m 97.305,156.124 -34.569,10.648 28.116,22.743 c 34.201,27.681 71.847,52.496 111.815,73.731 10.525,5.393 24.048,12.102 36.173,17.941 4.348,2.084 8.632,4.121 12.725,6.031 l 0.158,-0.232 4.028,1.745 c 37.245,16.08 76.344,29.255 116.249,39.174 12.143,-12.695 23.059,-23.217 33.073,-31.874 -41.308,-8.814 -81.583,-21.128 -119.865,-36.659 l -2.284,-0.969 c -0.08,-0.026 -0.143,-0.053 -0.211,-0.083 C 266.81,252.517 248.509,244.222 236.034,237.158 208.435,223.371 181.77,207.72 156.781,190.62 l -11.007,-7.531 13.115,-2.423 c 40.067,-7.386 81.71,-9.56 123.791,-6.458 C 296.671,162.769 317.12,151.24 335.481,142 254.027,128.307 172.02,133.13 97.305,156.124"
           style="fill:#000100;fill-opacity:1;fill-rule:nonzero;stroke:none"
           id="path4735"
           inkscape:connector-curvature="0" /><path
           d="m 97.305,156.124 -34.569,10.648 28.116,22.743 c 34.201,27.681 71.847,52.496 111.815,73.731 10.525,5.393 24.048,12.102 36.173,17.941 4.348,2.084 8.632,4.121 12.725,6.031 l 0.158,-0.232 4.028,1.745 c 37.245,16.08 76.344,29.255 116.249,39.174 12.143,-12.695 23.059,-23.217 33.073,-31.874 -41.308,-8.814 -81.583,-21.128 -119.865,-36.659 l -2.284,-0.969 c -0.08,-0.026 -0.143,-0.053 -0.211,-0.083 C 266.81,252.517 248.509,244.222 236.034,237.158 208.435,223.371 181.77,207.72 156.781,190.62 l -11.007,-7.531 13.115,-2.423 c 40.067,-7.386 81.71,-9.56 123.791,-6.458 C 296.671,162.769 317.12,151.24 335.481,142 254.027,128.307 172.02,133.13 97.305,156.124"
           style="fill:#000100;fill-opacity:1;fill-rule:nonzero;stroke:none"
           id="path4737"
           inkscape:connector-curvature="0" /><path
           d="m 369.793,147.657 c -9.951,4.757 -44.354,21.524 -69.031,38.016 l -1.298,0.889 c -15.792,11.285 -30.687,23.923 -44.379,37.609 12.67,6.611 27.418,12.956 38.024,16.976 21.858,-19.9 46.403,-36.648 73.017,-49.805 0.485,-0.25 0.98,-0.475 1.45,-0.709 l 0.577,-0.268 0.764,-0.493 c 25.653,-15.906 65.152,-23.835 80.937,-26.505 4.339,-0.73 8.676,-1.375 12.834,-1.91 48.714,-6.867 99.18,-2.144 146.094,13.639 13.983,-6.025 31.83,-12.678 53.182,-19.848 -90.366,-43.419 -194.269,-47.181 -287.136,-9.953 -1.63,0.747 -3.294,1.541 -5.035,2.362"
           style="fill:#000100;fill-opacity:1;fill-rule:nonzero;stroke:none"
           id="path4739"
           inkscape:connector-curvature="0" /><path
           d="m 369.793,147.657 c -9.951,4.757 -44.354,21.524 -69.031,38.016 l -1.298,0.889 c -15.792,11.285 -30.687,23.923 -44.379,37.609 12.67,6.611 27.418,12.956 38.024,16.976 21.858,-19.9 46.403,-36.648 73.017,-49.805 0.485,-0.25 0.98,-0.475 1.45,-0.709 l 0.577,-0.268 0.764,-0.493 c 25.653,-15.906 65.152,-23.835 80.937,-26.505 4.339,-0.73 8.676,-1.375 12.834,-1.91 48.714,-6.867 99.18,-2.144 146.094,13.639 13.983,-6.025 31.83,-12.678 53.182,-19.848 -90.366,-43.419 -194.269,-47.181 -287.136,-9.953 -1.63,0.747 -3.294,1.541 -5.035,2.362"
           style="fill:#000100;fill-opacity:1;fill-rule:nonzero;stroke:none"
           id="path4741"
           inkscape:connector-curvature="0" /><path
           d="m 388.815,704.038 26.504,24.611 5.642,-35.714 c 6.87,-43.464 9.542,-88.472 7.944,-133.705 -0.591,-11.811 -1.544,-26.88 -2.55,-40.295 -0.372,-4.809 -0.746,-9.539 -1.14,-14.037 l -0.277,-0.02 -0.504,-4.365 c -4.7,-40.295 -12.837,-80.741 -24.198,-120.26 -17.066,-4.168 -31.636,-8.36 -44.144,-12.703 13.026,40.178 22.495,81.215 28.183,122.134 l 0.309,2.462 c 0.014,0.083 0.02,0.148 0.036,0.225 2.922,16.677 4.894,36.67 5.005,51.012 1.862,30.788 1.639,61.706 -0.671,91.899 l -1.021,13.3 -8.661,-10.147 c -26.425,-31.005 -49.127,-65.983 -67.483,-103.978 -16.902,-6.398 -37.106,-18.342 -54.296,-29.621 28.872,77.386 74.056,145.991 131.322,199.202"
           style="fill:#000100;fill-opacity:1;fill-rule:nonzero;stroke:none"
           id="path4743"
           inkscape:connector-curvature="0" /><path
           d="m 388.815,704.038 26.504,24.611 5.642,-35.714 c 6.87,-43.464 9.542,-88.472 7.944,-133.705 -0.591,-11.811 -1.544,-26.88 -2.55,-40.295 -0.372,-4.809 -0.746,-9.539 -1.14,-14.037 l -0.277,-0.02 -0.504,-4.365 c -4.7,-40.295 -12.837,-80.741 -24.198,-120.26 -17.066,-4.168 -31.636,-8.36 -44.144,-12.703 13.026,40.178 22.495,81.215 28.183,122.134 l 0.309,2.462 c 0.014,0.083 0.02,0.148 0.036,0.225 2.922,16.677 4.894,36.67 5.005,51.012 1.862,30.788 1.639,61.706 -0.671,91.899 l -1.021,13.3 -8.661,-10.147 c -26.425,-31.005 -49.127,-65.983 -67.483,-103.978 -16.902,-6.398 -37.106,-18.342 -54.296,-29.621 28.872,77.386 74.056,145.991 131.322,199.202"
           style="fill:#000100;fill-opacity:1;fill-rule:nonzero;stroke:none"
           id="path4745"
           inkscape:connector-curvature="0" /><path
           d="m 245.24,472.288 c 9.094,6.24 40.816,27.648 67.437,40.775 l 1.419,0.682 c 17.672,8.033 36.063,14.611 54.755,19.628 -0.607,-14.277 -2.486,-30.226 -4.306,-41.417 -28.164,-8.98 -54.94,-21.864 -79.643,-38.333 -0.456,-0.3 -0.899,-0.609 -1.337,-0.9 l -0.518,-0.368 -0.808,-0.413 c -26.603,-14.263 -53.219,-44.509 -63.426,-56.844 -2.805,-3.393 -5.527,-6.826 -8.068,-10.159 -30.308,-38.757 -51.45,-84.821 -61.236,-133.335 -12.208,-9.108 -26.891,-21.233 -43.778,-36.13 7.58,99.961 56.272,191.822 134.947,253.635 1.459,1.041 2.978,2.086 4.562,3.179"
           style="fill:#000100;fill-opacity:1;fill-rule:nonzero;stroke:none"
           id="path4747"
           inkscape:connector-curvature="0" /><path
           d="m 245.24,472.288 c 9.094,6.24 40.816,27.648 67.437,40.775 l 1.419,0.682 c 17.672,8.033 36.063,14.611 54.755,19.628 -0.607,-14.277 -2.486,-30.226 -4.306,-41.417 -28.164,-8.98 -54.94,-21.864 -79.643,-38.333 -0.456,-0.3 -0.899,-0.609 -1.337,-0.9 l -0.518,-0.368 -0.808,-0.413 c -26.603,-14.263 -53.219,-44.509 -63.426,-56.844 -2.805,-3.393 -5.527,-6.826 -8.068,-10.159 -30.308,-38.757 -51.45,-84.821 -61.236,-133.335 -12.208,-9.108 -26.891,-21.233 -43.778,-36.13 7.58,99.961 56.272,191.822 134.947,253.635 1.459,1.041 2.978,2.086 4.562,3.179"
           style="fill:#000100;fill-opacity:1;fill-rule:nonzero;stroke:none"
           id="path4749"
           inkscape:connector-curvature="0" /></g></g></g></svg>